<svg width="183" height="183" viewBox="0 0 87 87" fill="none" xmlns="http://www.w3.org/2000/svg">
<g clip-path="url(#clip0_1_2)">
<path d="M43.5 87C67.5244 87 87 67.5244 87 43.5C87 19.4756 67.5244 0 43.5 0C19.4756 0 0 19.4756 0 43.5C0 67.5244 19.4756 87 43.5 87Z" fill="#552BFF"/>
<path d="M28.0994 32.5H26.7784C26.7003 32.12 26.5636 31.7862 26.3683 31.4986C26.1765 31.2109 25.9421 30.9695 25.6651 30.7741C25.3917 30.5753 25.0881 30.4261 24.7543 30.3267C24.4205 30.2273 24.0724 30.1776 23.7102 30.1776C23.0497 30.1776 22.4513 30.3445 21.9151 30.6783C21.3825 31.0121 20.9581 31.5039 20.642 32.1538C20.3295 32.8036 20.1733 33.6009 20.1733 34.5455C20.1733 35.4901 20.3295 36.2873 20.642 36.9371C20.9581 37.587 21.3825 38.0788 21.9151 38.4126C22.4513 38.7464 23.0497 38.9134 23.7102 38.9134C24.0724 38.9134 24.4205 38.8636 24.7543 38.7642C25.0881 38.6648 25.3917 38.5174 25.6651 38.3221C25.9421 38.1232 26.1765 37.88 26.3683 37.5923C26.5636 37.3011 26.7003 36.9673 26.7784 36.5909H28.0994C28 37.1484 27.8189 37.6474 27.5561 38.0877C27.2933 38.5281 26.9666 38.9027 26.576 39.2116C26.1854 39.517 25.7468 39.7496 25.2603 39.9094C24.7773 40.0692 24.2607 40.1491 23.7102 40.1491C22.7798 40.1491 21.9524 39.9219 21.228 39.4673C20.5036 39.0128 19.9336 38.3665 19.5181 37.5284C19.1026 36.6903 18.8949 35.696 18.8949 34.5455C18.8949 33.3949 19.1026 32.4006 19.5181 31.5625C19.9336 30.7244 20.5036 30.0781 21.228 29.6236C21.9524 29.169 22.7798 28.9418 23.7102 28.9418C24.2607 28.9418 24.7773 29.0217 25.2603 29.1815C25.7468 29.3413 26.1854 29.5756 26.576 29.8846C26.9666 30.19 27.2933 30.5629 27.5561 31.0032C27.8189 31.44 28 31.9389 28.0994 32.5ZM32.9375 40.1705C32.1989 40.1705 31.5508 39.9947 30.9933 39.6431C30.4393 39.2915 30.0061 38.7997 29.6936 38.1676C29.3846 37.5355 29.2301 36.7969 29.2301 35.9517C29.2301 35.0994 29.3846 34.3555 29.6936 33.7198C30.0061 33.0842 30.4393 32.5906 30.9933 32.239C31.5508 31.8874 32.1989 31.7116 32.9375 31.7116C33.6762 31.7116 34.3225 31.8874 34.8764 32.239C35.434 32.5906 35.8672 33.0842 36.1762 33.7198C36.4887 34.3555 36.6449 35.0994 36.6449 35.9517C36.6449 36.7969 36.4887 37.5355 36.1762 38.1676C35.8672 38.7997 35.434 39.2915 34.8764 39.6431C34.3225 39.9947 33.6762 40.1705 32.9375 40.1705ZM32.9375 39.0412C33.4986 39.0412 33.9602 38.8974 34.3225 38.6097C34.6847 38.3221 34.9528 37.9439 35.1268 37.4751C35.3008 37.0064 35.3878 36.4986 35.3878 35.9517C35.3878 35.4048 35.3008 34.8952 35.1268 34.4229C34.9528 33.9506 34.6847 33.5689 34.3225 33.2777C33.9602 32.9865 33.4986 32.8409 32.9375 32.8409C32.3764 32.8409 31.9148 32.9865 31.5526 33.2777C31.1904 33.5689 30.9222 33.9506 30.7482 34.4229C30.5742 34.8952 30.4872 35.4048 30.4872 35.9517C30.4872 36.4986 30.5742 37.0064 30.7482 37.4751C30.9222 37.9439 31.1904 38.3221 31.5526 38.6097C31.9148 38.8974 32.3764 39.0412 32.9375 39.0412ZM38.1138 40V31.8182H39.3283V33.0966H39.4349C39.6053 32.6598 39.8805 32.3207 40.2605 32.0792C40.6405 31.8342 41.0968 31.7116 41.6295 31.7116C42.1692 31.7116 42.6185 31.8342 42.9771 32.0792C43.3393 32.3207 43.6217 32.6598 43.8241 33.0966H43.9093C44.1188 32.674 44.4331 32.3384 44.8521 32.0898C45.2712 31.8377 45.7737 31.7116 46.3596 31.7116C47.0911 31.7116 47.6895 31.9407 48.1547 32.3988C48.6199 32.8533 48.8525 33.5618 48.8525 34.5241V40H47.5954V34.5241C47.5954 33.9205 47.4303 33.489 47.1 33.2298C46.7697 32.9705 46.3809 32.8409 45.9335 32.8409C45.3582 32.8409 44.9125 33.0149 44.5964 33.3629C44.2804 33.7074 44.1224 34.1442 44.1224 34.6733V40H42.844V34.3963C42.844 33.9311 42.693 33.5565 42.3912 33.2724C42.0893 32.9847 41.7005 32.8409 41.2246 32.8409C40.8979 32.8409 40.5925 32.9279 40.3085 33.1019C40.0279 33.2759 39.8006 33.5174 39.6266 33.8263C39.4562 34.1317 39.371 34.4851 39.371 34.8864V40H38.1138ZM50.701 40V31.8182H51.9581V40H50.701ZM51.3402 30.4545C51.0951 30.4545 50.8838 30.3711 50.7063 30.2042C50.5323 30.0373 50.4453 29.8366 50.4453 29.6023C50.4453 29.3679 50.5323 29.1673 50.7063 29.0004C50.8838 28.8335 51.0951 28.75 51.3402 28.75C51.5852 28.75 51.7947 28.8335 51.9687 29.0004C52.1463 29.1673 52.235 29.3679 52.235 29.6023C52.235 29.8366 52.1463 30.0373 51.9687 30.2042C51.7947 30.3711 51.5852 30.4545 51.3402 30.4545ZM55.0676 35.0781V40H53.8105V31.8182H55.025V33.0966H55.1316C55.3233 32.6811 55.6145 32.3473 56.0051 32.0952C56.3958 31.8395 56.9 31.7116 57.5179 31.7116C58.0719 31.7116 58.5566 31.8253 58.9721 32.0526C59.3876 32.2763 59.7107 32.6172 59.9416 33.0753C60.1724 33.5298 60.2878 34.1051 60.2878 34.8011V40H59.0307V34.8864C59.0307 34.2436 58.8638 33.7429 58.53 33.3842C58.1962 33.022 57.7381 32.8409 57.1557 32.8409C56.7544 32.8409 56.3958 32.9279 56.0797 33.1019C55.7672 33.2759 55.5204 33.5298 55.3393 33.8636C55.1582 34.1974 55.0676 34.6023 55.0676 35.0781ZM65.4375 43.2386C64.8303 43.2386 64.3082 43.1605 63.8714 43.0043C63.4347 42.8516 63.0707 42.6491 62.7795 42.397C62.4918 42.1484 62.2628 41.8821 62.0923 41.598L63.0938 40.8949C63.2074 41.044 63.3512 41.2145 63.5252 41.4062C63.6992 41.6016 63.9371 41.7702 64.239 41.9123C64.5444 42.0579 64.9439 42.1307 65.4375 42.1307C66.098 42.1307 66.6431 41.9709 67.0728 41.6513C67.5025 41.3317 67.7173 40.831 67.7173 40.1491V38.4872H67.6108C67.5185 38.6364 67.3871 38.821 67.2166 39.0412C67.0497 39.2578 66.8082 39.4513 66.4922 39.6218C66.1797 39.7887 65.7571 39.8722 65.2244 39.8722C64.5639 39.8722 63.9709 39.7159 63.4453 39.4034C62.9233 39.0909 62.5096 38.6364 62.2042 38.0398C61.9023 37.4432 61.7514 36.7187 61.7514 35.8665C61.7514 35.0284 61.8988 34.2987 62.1935 33.6772C62.4883 33.0522 62.8984 32.5692 63.424 32.2283C63.9496 31.8839 64.5568 31.7116 65.2457 31.7116C65.7784 31.7116 66.201 31.8004 66.5135 31.978C66.8295 32.152 67.071 32.3509 67.2379 32.5746C67.4084 32.7947 67.5398 32.9759 67.6321 33.1179H67.7599V31.8182H68.9744V40.2344C68.9744 40.9375 68.8146 41.5092 68.495 41.9496C68.179 42.3935 67.7528 42.7184 67.2166 42.9244C66.6839 43.1339 66.0909 43.2386 65.4375 43.2386ZM65.3949 38.7429C65.8991 38.7429 66.3253 38.6275 66.6733 38.3967C67.0213 38.1658 67.2859 37.8338 67.467 37.4006C67.6481 36.9673 67.7386 36.4489 67.7386 35.8452C67.7386 35.2557 67.6499 34.7354 67.4723 34.2844C67.2947 33.8335 67.032 33.4801 66.6839 33.2244C66.3359 32.9687 65.9063 32.8409 65.3949 32.8409C64.8622 32.8409 64.4183 32.9759 64.0632 33.2457C63.7116 33.5156 63.4471 33.8778 63.2695 34.3324C63.0955 34.7869 63.0085 35.2912 63.0085 35.8452C63.0085 36.4134 63.0973 36.9158 63.2749 37.3526C63.456 37.7859 63.7223 38.1268 64.0739 38.3754C64.429 38.6204 64.8693 38.7429 65.3949 38.7429ZM25.2869 51.8182C25.223 51.2784 24.9638 50.8594 24.5092 50.5611C24.0547 50.2628 23.4972 50.1136 22.8366 50.1136C22.3537 50.1136 21.9311 50.1918 21.5689 50.348C21.2102 50.5043 20.9297 50.7191 20.7273 50.9925C20.5284 51.266 20.429 51.5767 20.429 51.9247C20.429 52.2159 20.4982 52.4663 20.6367 52.6758C20.7788 52.8817 20.9599 53.054 21.18 53.1925C21.4002 53.3274 21.631 53.4393 21.8725 53.5281C22.114 53.6133 22.3359 53.6825 22.5384 53.7358L23.6463 54.0341C23.9304 54.1087 24.2464 54.2116 24.5945 54.343C24.946 54.4744 25.2816 54.6538 25.6012 54.881C25.9244 55.1048 26.1907 55.3924 26.4002 55.744C26.6097 56.0955 26.7145 56.527 26.7145 57.0384C26.7145 57.6278 26.56 58.1605 26.2511 58.6364C25.9457 59.1122 25.4982 59.4904 24.9087 59.771C24.3228 60.0515 23.6108 60.1918 22.7727 60.1918C21.9915 60.1918 21.315 60.0657 20.7433 59.8136C20.1751 59.5614 19.7276 59.2099 19.4009 58.7589C19.0778 58.3079 18.8949 57.7841 18.8523 57.1875H20.2159C20.2514 57.5994 20.3899 57.9403 20.6314 58.2102C20.8764 58.4766 21.1854 58.6754 21.5582 58.8068C21.9347 58.9347 22.3395 58.9986 22.7727 58.9986C23.277 58.9986 23.7298 58.9169 24.131 58.7536C24.5323 58.5866 24.8501 58.3558 25.0845 58.0611C25.3189 57.7628 25.4361 57.4148 25.4361 57.017C25.4361 56.6548 25.3349 56.3601 25.1325 56.1328C24.93 55.9055 24.6637 55.7209 24.3335 55.5788C24.0032 55.4368 23.6463 55.3125 23.2628 55.206L21.9205 54.8224C21.0682 54.5774 20.3935 54.2276 19.8963 53.7731C19.3991 53.3185 19.1506 52.7237 19.1506 51.9886C19.1506 51.3778 19.3157 50.8452 19.646 50.3906C19.9798 49.9325 20.4272 49.5774 20.9883 49.3253C21.5529 49.0696 22.1832 48.9418 22.8793 48.9418C23.5824 48.9418 24.2074 49.0678 24.7543 49.32C25.3011 49.5685 25.7344 49.9094 26.054 50.3427C26.3771 50.7759 26.5476 51.2678 26.5653 51.8182H25.2869ZM31.5899 60.1705C30.8512 60.1705 30.2031 59.9947 29.6456 59.6431C29.0916 59.2915 28.6584 58.7997 28.3459 58.1676C28.0369 57.5355 27.8825 56.7969 27.8825 55.9517C27.8825 55.0994 28.0369 54.3555 28.3459 53.7198C28.6584 53.0842 29.0916 52.5906 29.6456 52.239C30.2031 51.8874 30.8512 51.7116 31.5899 51.7116C32.3285 51.7116 32.9748 51.8874 33.5288 52.239C34.0863 52.5906 34.5195 53.0842 34.8285 53.7198C35.141 54.3555 35.2972 55.0994 35.2972 55.9517C35.2972 56.7969 35.141 57.5355 34.8285 58.1676C34.5195 58.7997 34.0863 59.2915 33.5288 59.6431C32.9748 59.9947 32.3285 60.1705 31.5899 60.1705ZM31.5899 59.0412C32.1509 59.0412 32.6126 58.8974 32.9748 58.6097C33.337 58.3221 33.6051 57.9439 33.7791 57.4751C33.9531 57.0064 34.0401 56.4986 34.0401 55.9517C34.0401 55.4048 33.9531 54.8952 33.7791 54.4229C33.6051 53.9506 33.337 53.5689 32.9748 53.2777C32.6126 52.9865 32.1509 52.8409 31.5899 52.8409C31.0288 52.8409 30.5671 52.9865 30.2049 53.2777C29.8427 53.5689 29.5746 53.9506 29.4006 54.4229C29.2266 54.8952 29.1396 55.4048 29.1396 55.9517C29.1396 56.4986 29.2266 57.0064 29.4006 57.4751C29.5746 57.9439 29.8427 58.3221 30.2049 58.6097C30.5671 58.8974 31.0288 59.0412 31.5899 59.0412ZM40.0901 60.1705C39.3514 60.1705 38.7033 59.9947 38.1458 59.6431C37.5918 59.2915 37.1586 58.7997 36.8461 58.1676C36.5371 57.5355 36.3827 56.7969 36.3827 55.9517C36.3827 55.0994 36.5371 54.3555 36.8461 53.7198C37.1586 53.0842 37.5918 52.5906 38.1458 52.239C38.7033 51.8874 39.3514 51.7116 40.0901 51.7116C40.8287 51.7116 41.475 51.8874 42.029 52.239C42.5865 52.5906 43.0197 53.0842 43.3287 53.7198C43.6412 54.3555 43.7974 55.0994 43.7974 55.9517C43.7974 56.7969 43.6412 57.5355 43.3287 58.1676C43.0197 58.7997 42.5865 59.2915 42.029 59.6431C41.475 59.9947 40.8287 60.1705 40.0901 60.1705ZM40.0901 59.0412C40.6511 59.0412 41.1128 58.8974 41.475 58.6097C41.8372 58.3221 42.1053 57.9439 42.2793 57.4751C42.4533 57.0064 42.5403 56.4986 42.5403 55.9517C42.5403 55.4048 42.4533 54.8952 42.2793 54.4229C42.1053 53.9506 41.8372 53.5689 41.475 53.2777C41.1128 52.9865 40.6511 52.8409 40.0901 52.8409C39.529 52.8409 39.0673 52.9865 38.7051 53.2777C38.3429 53.5689 38.0748 53.9506 37.9008 54.4229C37.7268 54.8952 37.6398 55.4048 37.6398 55.9517C37.6398 56.4986 37.7268 57.0064 37.9008 57.4751C38.0748 57.9439 38.3429 58.3221 38.7051 58.6097C39.0673 58.8974 39.529 59.0412 40.0901 59.0412ZM46.5235 55.0781V60H45.2664V51.8182H46.4809V53.0966H46.5874C46.7792 52.6811 47.0704 52.3473 47.461 52.0952C47.8516 51.8395 48.3559 51.7116 48.9738 51.7116C49.5278 51.7116 50.0125 51.8253 50.428 52.0526C50.8434 52.2763 51.1666 52.6172 51.3974 53.0753C51.6282 53.5298 51.7437 54.1051 51.7437 54.8011V60H50.4866V54.8864C50.4866 54.2436 50.3197 53.7429 49.9858 53.3842C49.652 53.022 49.1939 52.8409 48.6116 52.8409C48.2103 52.8409 47.8516 52.9279 47.5356 53.1019C47.2231 53.2759 46.9763 53.5298 46.7952 53.8636C46.614 54.1974 46.5235 54.6023 46.5235 55.0781ZM54.507 60.0852C54.2442 60.0852 54.0187 59.9911 53.8305 59.8029C53.6423 59.6147 53.5482 59.3892 53.5482 59.1264C53.5482 58.8636 53.6423 58.6381 53.8305 58.4499C54.0187 58.2617 54.2442 58.1676 54.507 58.1676C54.7698 58.1676 54.9953 58.2617 55.1835 58.4499C55.3717 58.6381 55.4658 58.8636 55.4658 59.1264C55.4658 59.3004 55.4214 59.4602 55.3326 59.6058C55.2474 59.7514 55.132 59.8686 54.9864 59.9574C54.8444 60.0426 54.6846 60.0852 54.507 60.0852ZM58.1879 60.0852C57.9251 60.0852 57.6996 59.9911 57.5114 59.8029C57.3232 59.6147 57.229 59.3892 57.229 59.1264C57.229 58.8636 57.3232 58.6381 57.5114 58.4499C57.6996 58.2617 57.9251 58.1676 58.1879 58.1676C58.4506 58.1676 58.6761 58.2617 58.8643 58.4499C59.0526 58.6381 59.1467 58.8636 59.1467 59.1264C59.1467 59.3004 59.1023 59.4602 59.0135 59.6058C58.9283 59.7514 58.8129 59.8686 58.6673 59.9574C58.5252 60.0426 58.3654 60.0852 58.1879 60.0852ZM61.8687 60.0852C61.6059 60.0852 61.3804 59.9911 61.1922 59.8029C61.004 59.6147 60.9099 59.3892 60.9099 59.1264C60.9099 58.8636 61.004 58.6381 61.1922 58.4499C61.3804 58.2617 61.6059 58.1676 61.8687 58.1676C62.1315 58.1676 62.357 58.2617 62.5452 58.4499C62.7334 58.6381 62.8275 58.8636 62.8275 59.1264C62.8275 59.3004 62.7831 59.4602 62.6944 59.6058C62.6091 59.7514 62.4937 59.8686 62.3481 59.9574C62.2061 60.0426 62.0463 60.0852 61.8687 60.0852Z" fill="black"/>
</g>
<defs>
<clipPath id="clip0_1_2">
<rect width="87" height="87" fill="white"/>
</clipPath>
</defs>
</svg>
