<svg width="246" height="29" viewBox="0 0 246 29" fill="none" xmlns="http://www.w3.org/2000/svg">
<path d="M0.25 14.6797C0.25 11.9844 0.875 9.58203 2.125 7.47266C3.375 5.36328 5.08073 3.73568 7.24219 2.58984C9.40365 1.44401 11.819 0.871094 14.4883 0.871094C15.8945 0.871094 17.1966 1.05339 18.3945 1.41797C19.6055 1.76953 20.6536 2.26432 21.5391 2.90234C22.4375 3.52734 23.2122 4.21094 23.8633 4.95312C24.5273 5.68229 25.1068 6.49609 25.6016 7.39453L20.7188 9.79688C20.1458 8.67708 19.293 7.7526 18.1602 7.02344C17.0273 6.29427 15.8034 5.92969 14.4883 5.92969C12.0534 5.92969 10.0417 6.75651 8.45312 8.41016C6.8776 10.0638 6.08984 12.1536 6.08984 14.6797C6.08984 17.2057 6.8776 19.3021 8.45312 20.9688C10.0417 22.6224 12.0534 23.4492 14.4883 23.4492C15.8034 23.4492 17.0273 23.0846 18.1602 22.3555C19.293 21.6133 20.1458 20.6823 20.7188 19.5625L25.6016 21.9258C25.0938 22.8242 24.5143 23.6445 23.8633 24.3867C23.2253 25.1159 22.457 25.7995 21.5586 26.4375C20.6602 27.0755 19.6055 27.5768 18.3945 27.9414C17.1966 28.306 15.8945 28.4883 14.4883 28.4883C12.4961 28.4883 10.6211 28.1497 8.86328 27.4727C7.11849 26.7956 5.60807 25.8646 4.33203 24.6797C3.06901 23.4818 2.07292 22.0234 1.34375 20.3047C0.614583 18.5729 0.25 16.6979 0.25 14.6797ZM26.7461 20.2266C26.056 18.5078 25.7109 16.6589 25.7109 14.6797C25.7109 12.7005 26.056 10.8516 26.7461 9.13281C27.4492 7.41406 28.4128 5.95573 29.6367 4.75781C30.8607 3.54688 32.3385 2.59635 34.0703 1.90625C35.8021 1.21615 37.6641 0.871094 39.6562 0.871094C42.3125 0.871094 44.6953 1.45703 46.8047 2.62891C48.9271 3.80078 50.5872 5.44141 51.7852 7.55078C52.9831 9.66016 53.582 12.0365 53.582 14.6797C53.582 17.3229 52.9831 19.6992 51.7852 21.8086C50.5872 23.918 48.9271 25.5586 46.8047 26.7305C44.6953 27.9023 42.3125 28.4883 39.6562 28.4883C37.6641 28.4883 35.8021 28.1432 34.0703 27.4531C32.3385 26.763 30.8607 25.819 29.6367 24.6211C28.4128 23.4102 27.4492 21.9453 26.7461 20.2266ZM31.5508 14.6797C31.5508 17.2057 32.293 19.3021 33.7773 20.9688C35.2617 22.6224 37.2214 23.4492 39.6562 23.4492C42.0781 23.4492 44.0312 22.6224 45.5156 20.9688C47 19.3021 47.7422 17.2057 47.7422 14.6797C47.7422 12.1406 47 10.0508 45.5156 8.41016C44.0312 6.75651 42.0781 5.92969 39.6562 5.92969C37.2083 5.92969 35.2422 6.75651 33.7578 8.41016C32.2865 10.0508 31.5508 12.1406 31.5508 14.6797ZM55.332 20.2266C54.6419 18.5078 54.2969 16.6589 54.2969 14.6797C54.2969 12.7005 54.6419 10.8516 55.332 9.13281C56.0352 7.41406 56.9987 5.95573 58.2227 4.75781C59.4466 3.54688 60.9245 2.59635 62.6562 1.90625C64.388 1.21615 66.25 0.871094 68.2422 0.871094C70.8984 0.871094 73.2812 1.45703 75.3906 2.62891C77.513 3.80078 79.1732 5.44141 80.3711 7.55078C81.569 9.66016 82.168 12.0365 82.168 14.6797C82.168 17.3229 81.569 19.6992 80.3711 21.8086C79.1732 23.918 77.513 25.5586 75.3906 26.7305C73.2812 27.9023 70.8984 28.4883 68.2422 28.4883C66.25 28.4883 64.388 28.1432 62.6562 27.4531C60.9245 26.763 59.4466 25.819 58.2227 24.6211C56.9987 23.4102 56.0352 21.9453 55.332 20.2266ZM60.1367 14.6797C60.1367 17.2057 60.8789 19.3021 62.3633 20.9688C63.8477 22.6224 65.8073 23.4492 68.2422 23.4492C70.6641 23.4492 72.6172 22.6224 74.1016 20.9688C75.5859 19.3021 76.3281 17.2057 76.3281 14.6797C76.3281 12.1406 75.5859 10.0508 74.1016 8.41016C72.6172 6.75651 70.6641 5.92969 68.2422 5.92969C65.7943 5.92969 63.8281 6.75651 62.3438 8.41016C60.8724 10.0508 60.1367 12.1406 60.1367 14.6797ZM84.1523 28V1.32031H89.8359V13.1953L99.2695 1.32031H106.281L95.6758 13.8398L107.004 28H99.9922L91.9062 17.2773L89.8359 19.7969V28H84.1523ZM193.188 21.0859C193.188 19.5234 193.721 18.1367 194.789 16.9258C195.857 15.7148 197.23 14.8164 198.91 14.2305C195.382 13.0065 193.617 10.9167 193.617 7.96094C193.617 6.75 193.917 5.68229 194.516 4.75781C195.115 3.82031 195.915 3.08464 196.918 2.55078C197.921 2.00391 199.014 1.60026 200.199 1.33984C201.384 1.06641 202.621 0.929688 203.91 0.929688C204.926 0.929688 205.909 1.01432 206.859 1.18359C207.823 1.33984 208.747 1.60026 209.633 1.96484C210.531 2.32943 211.312 2.77865 211.977 3.3125C212.654 3.83333 213.188 4.4974 213.578 5.30469C213.982 6.09896 214.184 6.98438 214.184 7.96094C214.184 10.9036 212.426 12.9935 208.91 14.2305C210.577 14.8164 211.944 15.7148 213.012 16.9258C214.079 18.1367 214.613 19.5234 214.613 21.0859C214.613 22.6745 214.099 24.0417 213.07 25.1875C212.055 26.3333 210.753 27.1732 209.164 27.707C207.589 28.2279 205.837 28.4883 203.91 28.4883C202.478 28.4883 201.124 28.332 199.848 28.0195C198.585 27.707 197.452 27.2578 196.449 26.6719C195.447 26.0729 194.652 25.2917 194.066 24.3281C193.48 23.3646 193.188 22.2839 193.188 21.0859ZM198.949 20.2852C198.949 21.2227 199.418 21.9844 200.355 22.5703C201.306 23.1562 202.491 23.4492 203.91 23.4492C205.303 23.4492 206.475 23.1562 207.426 22.5703C208.376 21.9844 208.852 21.2227 208.852 20.2852C208.852 19.7643 208.676 19.2891 208.324 18.8594C207.973 18.4167 207.523 18.0651 206.977 17.8047C206.43 17.5312 205.896 17.3164 205.375 17.1602C204.867 16.9909 204.379 16.8737 203.91 16.8086C203.428 16.8737 202.927 16.9909 202.406 17.1602C201.885 17.3164 201.352 17.5312 200.805 17.8047C200.271 18.0651 199.828 18.4167 199.477 18.8594C199.125 19.2891 198.949 19.7643 198.949 20.2852ZM199.379 8.91797C199.379 9.3737 199.529 9.79036 199.828 10.168C200.141 10.5456 200.544 10.8581 201.039 11.1055C201.547 11.3398 202.029 11.5286 202.484 11.6719C202.953 11.8151 203.428 11.9258 203.91 12.0039C204.392 11.9258 204.861 11.8151 205.316 11.6719C205.785 11.5286 206.26 11.3398 206.742 11.1055C207.237 10.8581 207.634 10.5456 207.934 10.168C208.233 9.79036 208.383 9.3737 208.383 8.91797C208.383 7.99349 207.966 7.27083 207.133 6.75C206.312 6.22917 205.238 5.96875 203.91 5.96875C202.556 5.96875 201.462 6.22917 200.629 6.75C199.796 7.27083 199.379 7.99349 199.379 8.91797ZM216.871 27.4922C216.233 26.8411 215.914 26.0794 215.914 25.207C215.914 24.3346 216.233 23.5794 216.871 22.9414C217.509 22.2904 218.271 21.9648 219.156 21.9648C220.042 21.9648 220.803 22.2904 221.441 22.9414C222.079 23.5794 222.398 24.3346 222.398 25.207C222.398 26.0794 222.079 26.8411 221.441 27.4922C220.803 28.1302 220.042 28.4492 219.156 28.4492C218.271 28.4492 217.509 28.1302 216.871 27.4922ZM224.344 19.7578C223.901 18.1432 223.68 16.4505 223.68 14.6797C223.68 12.9089 223.901 11.2227 224.344 9.62109C224.786 8.01953 225.444 6.5612 226.316 5.24609C227.189 3.93099 228.348 2.88281 229.793 2.10156C231.238 1.32031 232.879 0.929688 234.715 0.929688C236.551 0.929688 238.191 1.32031 239.637 2.10156C241.082 2.88281 242.241 3.93099 243.113 5.24609C243.986 6.5612 244.643 8.01953 245.086 9.62109C245.529 11.2227 245.75 12.9089 245.75 14.6797C245.75 16.4505 245.529 18.1432 245.086 19.7578C244.643 21.3594 243.986 22.8242 243.113 24.1523C242.241 25.4674 241.082 26.5221 239.637 27.3164C238.191 28.0977 236.551 28.4883 234.715 28.4883C232.879 28.4883 231.238 28.0977 229.793 27.3164C228.348 26.5221 227.189 25.4674 226.316 24.1523C225.444 22.8242 224.786 21.3594 224.344 19.7578ZM229.48 14.6797C229.48 16.3984 229.643 17.8958 229.969 19.1719C230.307 20.4349 230.874 21.4635 231.668 22.2578C232.475 23.0521 233.491 23.4492 234.715 23.4492C235.939 23.4492 236.948 23.0521 237.742 22.2578C238.549 21.4635 239.116 20.4349 239.441 19.1719C239.78 17.8958 239.949 16.3984 239.949 14.6797C239.949 12.9609 239.786 11.4766 239.461 10.2266C239.135 8.96354 238.569 7.94141 237.762 7.16016C236.967 6.36589 235.952 5.96875 234.715 5.96875C233.79 5.96875 232.983 6.1901 232.293 6.63281C231.603 7.0625 231.056 7.68099 230.652 8.48828C230.262 9.29557 229.969 10.2135 229.773 11.2422C229.578 12.2578 229.48 13.4036 229.48 14.6797Z" fill="#B7AB98"/>
<path d="M115.621 20.2266C114.931 18.5078 114.586 16.6589 114.586 14.6797C114.586 12.7005 114.931 10.8516 115.621 9.13281C116.324 7.41406 117.288 5.95573 118.512 4.75781C119.736 3.54688 121.214 2.59635 122.945 1.90625C124.677 1.21615 126.539 0.871094 128.531 0.871094C131.188 0.871094 133.57 1.45703 135.68 2.62891C137.802 3.80078 139.462 5.44141 140.66 7.55078C141.858 9.66016 142.457 12.0365 142.457 14.6797C142.457 17.3229 141.858 19.6992 140.66 21.8086C139.462 23.918 137.802 25.5586 135.68 26.7305C133.57 27.9023 131.188 28.4883 128.531 28.4883C126.539 28.4883 124.677 28.1432 122.945 27.4531C121.214 26.763 119.736 25.819 118.512 24.6211C117.288 23.4102 116.324 21.9453 115.621 20.2266ZM120.426 14.6797C120.426 17.2057 121.168 19.3021 122.652 20.9688C124.137 22.6224 126.096 23.4492 128.531 23.4492C130.953 23.4492 132.906 22.6224 134.391 20.9688C135.875 19.3021 136.617 17.2057 136.617 14.6797C136.617 12.1406 135.875 10.0508 134.391 8.41016C132.906 6.75651 130.953 5.92969 128.531 5.92969C126.083 5.92969 124.117 6.75651 122.633 8.41016C121.161 10.0508 120.426 12.1406 120.426 14.6797ZM144.441 28V1.32031H163.328V6.32031H150.125V11.9258H163.035V16.9258H150.125V28H144.441ZM165.293 28V1.32031H184.18V6.32031H170.977V11.9258H183.887V16.9258H170.977V28H165.293Z" fill="#0D0D0D"/>
</svg>
