<svg width="79" height="169" viewBox="0 0 79 169" fill="none" xmlns="http://www.w3.org/2000/svg">
<path d="M53.699 138.093C54.7973 133.276 54.5054 128.369 50.9829 123.368C49.2017 120.846 47.1238 118.546 44.7937 116.517V91.8052C47.7176 91.5041 49.5877 88.6262 49.5828 84.3217C49.5828 82.7569 49.5828 80.1357 49.3502 77.0751C49.281 75.5251 49.2117 74.0294 49.1573 72.8792L49.9835 72.6225C53.275 71.5803 56.3293 69.9031 58.9729 67.6862C59.6343 67.1102 60.2558 66.49 60.8331 65.8301C61.4102 65.172 61.9424 64.4761 62.4262 63.747C63.4032 62.2178 64.0642 60.5093 64.3705 58.7218C64.9939 55.2663 64.8158 51.8109 64.514 48.4837C64.2122 45.1566 63.6779 41.8493 63.1386 38.611C62.5994 35.3728 62.0205 32.1691 61.4565 28.9999C60.8925 25.8308 60.3137 22.7011 59.626 19.6209C58.9383 16.5406 58.1418 13.5096 56.801 10.6564C56.1374 9.20774 55.2455 7.87448 54.1591 6.70734C53.5704 6.12584 52.9045 5.62757 52.1802 5.22644C51.5207 4.85219 50.8419 4.51276 50.1468 4.20954C47.5274 3.09772 44.8158 2.21571 42.043 1.57353C39.47 0.96054 36.8608 0.510432 34.231 0.225904C32.9645 0.0975583 31.7128 0.0136417 30.4759 0.00376896C29.2385 -0.0200628 28.0014 0.0691642 26.7802 0.270333C25.6238 0.506243 24.4983 0.873945 23.4259 1.3662C22.433 1.81731 21.4711 2.33347 20.5465 2.91128C17.4977 4.83862 14.742 7.19258 12.3635 9.90117C10.7825 11.6342 9.45047 13.5779 8.40562 15.6767C8.12949 16.2624 7.89313 16.866 7.69814 17.4834L7.53983 18.0807L7.41615 18.7372C7.37327 18.9479 7.33369 19.2095 7.29741 19.5221C7.25783 19.8331 7.20341 20.1935 7.18362 20.5933C7.05686 22.5444 7.05686 24.5017 7.18362 26.4528L11.0178 23.8414L7.33699 28.7778C7.40295 29.5775 7.47716 30.4167 7.55962 31.2953L11.5522 28.6692L7.80204 33.6796C7.88615 34.4398 7.9752 35.2296 8.0692 36.0392L12.0914 33.5068L8.3611 38.4432C8.4551 39.1886 8.5491 39.9488 8.64805 40.7238L12.606 38.3297L8.93499 43.1673C9.02899 43.8979 9.12794 44.6482 9.22689 45.4035L13.1403 43.1623L9.55342 47.8618C9.65236 48.5825 9.75626 49.3131 9.86016 50.0535L13.6795 47.995L10.2164 52.4871C10.3302 53.2078 10.4439 53.9335 10.5676 54.6641L14.2089 52.8277L10.9832 56.9891C11.1217 57.7246 11.2652 58.47 11.4285 59.2104L14.7432 57.6604L11.8985 61.3035C12.0667 61.9797 12.2448 62.656 12.4427 63.3323C12.8322 64.7402 13.3283 66.1164 13.9269 67.4492C14.2515 68.1515 14.632 68.8267 15.0648 69.4682C15.1836 69.636 15.2775 69.794 15.421 69.9618C15.5645 70.1297 15.703 70.3222 15.8218 70.4555L16.0048 70.6579L16.0988 70.7566L16.2472 70.8997C16.4122 71.0525 16.5856 71.1959 16.7667 71.3292C18.1187 72.2153 19.6181 72.8539 21.1946 73.2149C21.7685 73.363 22.3424 73.4913 22.9213 73.6147C23.1192 74.4144 23.4556 75.8114 23.8415 77.3664C22.8187 78.7169 22.2856 80.3739 22.3297 82.0661C22.3737 83.7584 22.9922 85.3855 24.0839 86.6813C24.9956 87.7538 26.26 88.4678 27.651 88.6953C27.8912 89.0426 28.1557 89.3725 28.4426 89.6826C28.215 91.2918 27.3393 93.0146 26.4141 94.8263C24.6776 98.2274 22.5156 102.463 25.395 106.619C27.4036 109.512 30.8124 111.496 34.1073 113.417L34.2162 113.481V145.962L32.1581 137.407C13.8527 138.587 0 144.091 0 150.701V155.469C0 162.938 17.682 169 39.5 169C61.318 169 79 162.938 79 155.469V150.701C79.0198 144.96 68.5066 140.043 53.699 138.093ZM50.9631 125.18C52.167 127.134 52.9379 129.322 53.2241 131.597C52.8975 130.719 52.6403 129.83 52.294 128.961C51.8054 127.799 51.2367 126.673 50.592 125.59C49.5531 123.778 48.1728 122.174 47.1685 120.352C48.5587 121.859 49.8276 123.474 50.9631 125.18ZM47.9551 125.491C50.8097 129.544 51.0274 133.527 50.0033 137.679C48.3113 137.516 46.5698 137.397 44.7937 137.314V121.631C45.9409 122.833 46.9976 124.118 47.9551 125.476V125.491ZM47.3367 85.1757C47.1207 86.3191 46.7513 87.4283 46.2383 88.4732C46.5422 87.4581 46.7265 86.4111 46.7875 85.3534C46.7896 84.0597 46.657 82.7693 46.3917 81.503C46.0207 79.6963 45.61 77.8995 45.1845 76.1076L38.8271 76.1915C38.5946 78.324 38.3621 80.4565 38.0108 82.5742C37.7761 84.0766 37.3505 85.543 36.7443 86.938C36.2224 88.0519 35.5462 89.0871 34.7357 90.0133C35.2918 89.0928 35.7574 88.1208 36.1259 87.1107C36.5379 85.6779 36.7624 84.1979 36.7938 82.7075C36.8482 80.5454 36.7443 78.3833 36.6453 76.2211C36.5662 74.4589 36.4672 72.7657 36.4128 71.7784H47.0052C47.0398 72.5386 47.0942 73.6641 47.1536 74.9476C47.307 76.9962 47.4554 79.0497 47.5296 81.1032C47.6197 82.4636 47.5549 83.8298 47.3367 85.1757ZM41.4987 149.561C41.4987 149.701 41.443 149.835 41.3437 149.934C41.2444 150.033 41.1098 150.089 40.9694 150.089C40.829 150.089 40.6943 150.033 40.595 149.934C40.4958 149.835 40.44 149.701 40.44 149.561L40.5736 124.997C40.6428 111.666 40.6874 98.3377 40.7071 85.0128V78.0427C41.4027 83.941 41.7546 89.8746 41.7609 95.8136C41.8302 102.655 41.8352 109.492 41.8747 116.334C41.9094 123.067 41.85 129.815 41.7511 136.573C41.7115 139.535 41.6472 142.497 41.5977 145.458C41.5977 146.663 41.5433 147.867 41.5086 149.072C41.5165 149.235 41.5132 149.398 41.4987 149.561ZM62.2432 46.3611C61.1646 46.3611 60.0861 46.3611 59.0076 46.4006C57.6223 46.4944 56.2519 46.6573 54.8765 46.8301C54.8765 45.3146 54.832 43.7942 54.7429 42.2787C55.8808 42.5206 57.0138 42.7724 58.1418 43.0735C59.4429 43.424 60.7144 43.8781 61.9809 44.3372C62.0552 45.0135 62.1442 45.6848 62.2234 46.3611H62.2432ZM61.6148 41.7999C60.5066 41.7506 59.3984 41.7209 58.2852 41.7654C57.1721 41.8098 55.9105 41.9135 54.7281 42.0221C54.6357 40.5576 54.5153 39.0915 54.3669 37.6238C56.7144 38.2344 59.0266 38.9727 61.2933 39.8352C61.3922 40.4868 61.4961 41.1434 61.595 41.7999H61.6148ZM60.8777 37.2535C58.686 37.1499 56.519 37.1647 54.3273 37.2535C54.1756 35.8055 54.0107 34.3625 53.8326 32.9243C56.1084 33.6105 58.3397 34.4053 60.5512 35.2889C60.6353 35.9503 60.749 36.6217 60.8579 37.2535H60.8777ZM59.7348 30.7523V30.7079C59.8486 31.3645 59.9624 32.0259 60.0811 32.6825C57.9736 32.5393 55.8709 32.4949 53.7584 32.5245C53.5803 31.093 53.3923 29.6614 53.2043 28.2397C55.4059 28.995 57.5728 29.8144 59.715 30.7523H59.7348ZM58.9284 26.1171C59.0521 26.7835 59.1708 27.4499 59.2945 28.1213C57.2512 27.9386 55.2129 27.8399 53.1597 27.8004C52.9717 26.3738 52.764 24.9422 52.5265 23.5206C54.6786 24.3449 56.801 25.2187 58.9037 26.1961C58.8938 26.1665 58.8987 26.1418 58.9086 26.1171H58.9284ZM58.4337 23.5453C56.4547 23.3231 54.4411 23.175 52.4374 23.0516C52.1802 21.5707 51.8932 20.1194 51.5568 18.6681C53.7485 19.5912 55.9105 20.5588 58.0478 21.63C58.1665 22.2618 58.3199 22.9035 58.4238 23.5453H58.4337ZM56.9495 16.9404C57.1276 17.6019 57.2908 18.2732 57.4442 18.9446C55.4652 18.6879 53.4566 18.4855 51.4529 18.3177C51.0769 16.738 50.6415 15.1683 50.1319 13.6232C52.4325 14.6845 54.7033 15.7754 56.9495 16.9404ZM22.3771 5.98664C23.1835 5.69045 24.074 5.40908 24.9349 5.67071C26.4636 6.13473 27.0523 8.13889 27.1167 9.5655C26.3053 8.6424 25.959 6.98378 24.8161 6.4161C24.1779 6.0903 23.3319 6.2532 22.664 6.36673C21.9961 6.48027 21.4569 6.59874 20.8533 6.6876C20.8533 6.50989 22.2286 6.04094 22.3771 5.98664ZM23.3962 14.9955C25.3227 13.6246 27.4693 12.5913 29.7437 11.9399C34.8494 11.4808 39.9354 12.4335 45.046 12.3644C45.2489 13.9638 45.4418 15.5582 45.6298 17.1625C45.4072 17.0243 44.5018 16.6245 44.4078 16.585C43.7844 16.3431 43.1512 16.1358 42.513 15.9334C41.0639 15.4864 39.5905 15.1221 38.0999 14.8425C35.5413 14.2915 32.9119 14.1449 30.3077 14.4081C30.1148 14.4081 29.9268 14.4722 29.7338 14.5068C27.7026 14.7456 25.7277 15.3317 23.8959 16.2395C21.7595 17.2823 19.7053 18.4853 17.7512 19.8381C19.5096 18.0861 21.3965 16.4674 23.3962 14.9955ZM28.6355 44.9098C30.3313 44.0411 32.1054 43.3338 33.9342 42.7971V42.7576C36.5662 42.2935 39.2526 42.0961 41.9094 41.8838C43.2798 41.7752 44.6552 41.6814 46.0256 41.5827L47.8759 41.4494C47.9205 41.4494 48.5339 41.3705 48.8258 41.3063L48.8555 41.4741C49.0979 43.0044 49.3503 44.5347 49.5729 46.0699C44.6948 44.4063 39.1834 44.3767 34.1766 45.2949H34.0974L33.7066 45.3294C32.8241 45.4246 31.9506 45.5896 31.0944 45.823C27.6807 46.6869 24.5391 48.1431 21.3925 49.6882C23.7129 47.9556 26.0381 46.1982 28.6454 44.9049L28.6355 44.9098ZM48.0392 40.9607C47.4387 40.7622 46.8276 40.5974 46.2087 40.4671C44.8686 40.1648 43.5101 39.9505 42.1419 39.8254C39.5441 39.5818 36.9264 39.6497 34.3448 40.0278C33.9688 40.087 33.6027 40.1561 33.2366 40.2351C33.1443 40.2288 33.0518 40.2288 32.9595 40.2351C32.1072 40.3341 31.2625 40.4908 30.4314 40.704C27.0177 41.5235 23.8712 43.1229 20.7692 44.7222C23.045 42.9353 25.3405 41.1533 27.9231 39.8204C27.7351 39.9192 27.8291 39.8698 27.9231 39.8204C29.5729 38.9525 31.3025 38.2449 33.0882 37.7077C33.0882 37.7077 33.0882 37.6583 33.0882 37.6336C34.6158 37.391 36.1547 37.2263 37.6991 37.14C40.2767 36.9376 42.8543 36.829 45.4369 36.6957C46.1097 36.6661 46.7875 36.6365 47.4603 36.5822C47.678 36.5687 47.8936 36.5323 48.1035 36.4736C48.336 38.0236 48.5982 39.5736 48.8258 41.1236C48.5682 41.0445 48.3054 40.9835 48.0392 40.941V40.9607ZM48.0392 36.3255C46.7993 35.8814 45.5275 35.5315 44.2346 35.279C41.1128 34.6391 37.9122 34.4727 34.7406 34.7854C34.0183 34.8594 33.3207 34.968 32.633 35.1062V35.0717L32.3807 35.1062C31.4514 35.221 30.5308 35.3974 29.625 35.6344C26.2806 36.4637 23.1934 38.1026 20.1854 39.7612C22.3547 37.8677 24.7062 36.1927 27.2057 34.7607C27.1315 34.8002 27.082 34.8248 27.2403 34.7607H27.2799C28.8704 33.9022 30.5406 33.1996 32.2669 32.6627C32.2693 32.6348 32.2693 32.6067 32.2669 32.5788C33.7706 32.3467 35.2876 32.2098 36.8086 32.1691C39.4753 32.0309 42.1468 31.9716 44.8184 31.8976C45.516 31.8729 46.2185 31.8581 46.9161 31.8137C47.0857 31.8108 47.2533 31.7774 47.4109 31.7149C47.6187 33.2699 47.8462 34.8199 48.0788 36.3699L48.0392 36.3255ZM47.1685 31.3891C45.8939 30.9209 44.5857 30.5497 43.2551 30.2785C40.1991 29.6262 37.0651 29.4151 33.949 29.6515C33.2591 29.7073 32.5734 29.8062 31.8958 29.9477V29.9082C31.7029 29.9082 31.5099 29.9576 31.3219 29.9823C30.466 30.1402 29.625 30.2982 28.7839 30.5253C25.5038 31.3694 22.481 33.0971 19.5719 34.7607C21.6986 32.8218 24.0196 31.1064 26.4982 29.6417C26.424 29.6861 26.3746 29.7108 26.5279 29.6417C26.6813 29.5726 26.6467 29.5775 26.5626 29.6417C28.1655 28.748 29.8565 28.0218 31.6089 27.4746C31.6089 27.445 31.6089 27.4154 31.6089 27.3857C33.2767 27.1469 34.9606 27.038 36.6453 27.0599C39.5 26.9859 42.3497 27.0599 45.1994 26.9662C45.5655 26.9662 45.9316 26.9662 46.3027 26.9662C46.4695 26.9775 46.637 26.9591 46.7974 26.9119C46.9804 28.452 47.1783 29.9921 47.3812 31.5323C47.3165 31.4736 47.2431 31.4253 47.1635 31.3891H47.1685ZM45.7189 26.2553C41.5126 24.8384 37.0671 24.2647 32.638 24.5671C32.1861 24.608 31.7368 24.6739 31.2923 24.7645C31.2923 24.7645 31.2923 24.725 31.2923 24.7053C31.0647 24.7645 30.8322 24.804 30.7382 24.8188C29.8335 24.9641 28.9382 25.1619 28.0567 25.4112C24.8013 26.3343 21.8328 28.0522 18.9584 29.7848C21.0395 27.8111 23.321 26.0591 25.766 24.5572H25.8105L25.865 24.5276C27.497 23.5885 29.2296 22.8351 31.0301 22.2816V22.2223C31.5248 22.168 32.0492 22.1779 32.539 22.089C33.9886 22.0002 35.4382 21.9854 36.8927 21.9854C39.782 21.9854 42.6713 22.1285 45.5606 22.0841C45.6842 22.0841 46.1493 22.0841 46.2087 22.015C46.3934 23.588 46.5781 25.1627 46.7628 26.7391C46.4318 26.5435 46.0821 26.3814 45.7189 26.2553ZM46.0553 21.8126C45.5262 21.5379 44.9688 21.3211 44.393 21.1659C43.0195 20.7174 41.6222 20.345 40.2075 20.0503C37.4115 19.4189 34.5354 19.2158 31.6782 19.4481C31.3615 19.4826 31.0449 19.5271 30.7283 19.5863V19.5468C30.5079 19.5958 30.2849 19.6321 30.0604 19.6554C29.192 19.7558 28.3364 19.9461 27.5075 20.2231C24.2076 21.2104 21.2194 22.9578 18.34 24.7942C20.3803 22.7783 22.631 20.9861 25.0536 19.4481H25.0932C26.067 18.8431 27.0859 18.3133 28.1408 17.8635C28.8977 17.5673 29.6547 17.3254 30.4314 17.0984C30.4314 17.0984 30.4314 17.0688 30.4314 17.049C30.9954 16.9799 31.5792 16.975 32.1333 16.9453C33.7412 16.8614 35.364 16.9009 36.9719 16.9453C38.6639 17.0145 40.3608 17.0885 42.0578 17.1428C42.795 17.1428 43.542 17.1872 44.2792 17.202C44.7285 17.269 45.1854 17.269 45.6348 17.202L46.1839 21.9261C46.1494 21.8798 46.1056 21.8411 46.0553 21.8126ZM13.8972 43.9867C13.0463 37.3374 12.2844 30.6586 12.0222 23.9451C11.9381 21.8225 11.9133 19.7048 11.9628 17.5821C12.3685 23.407 13.0908 29.2023 13.8181 34.9976C14.6393 41.5827 15.3468 48.1925 16.3264 54.743C16.6382 57.1064 17.1143 59.4453 17.7512 61.7428C15.3171 56.1993 14.6492 49.9498 13.8873 44.0262L13.8972 43.9867ZM20.2843 51.026C19.5966 47.8223 19.0673 44.5791 18.622 41.3359C17.7216 34.7705 16.9696 28.1608 16.5886 21.5411C16.4501 19.1568 16.3808 16.7627 16.46 14.3735C17.019 19.996 17.7166 25.5988 18.4093 31.2114C19.2305 37.8508 19.9726 44.505 20.9819 51.1198C21.3252 53.6483 21.8208 56.1539 22.4661 58.623C21.5172 56.1653 20.7839 53.63 20.2744 51.0457L20.2843 51.026ZM27.1018 70.6283C26.6566 70.727 26.2014 70.801 25.7512 70.8701C29.6151 68.7919 33.5829 65.0798 34.612 61.0221C35.4382 57.7789 35.453 54.3531 35.0424 50.4139C34.3596 50.483 33.6819 50.5768 33.0189 50.7002C33.103 52.6747 33.202 54.6493 33.1327 56.6238C33.1154 57.9566 32.8986 59.2793 32.4895 60.5482C32.1546 61.4585 31.7596 62.3457 31.3071 63.204C31.6314 62.313 31.8942 61.4009 32.0937 60.4742C32.3204 59.2012 32.3521 57.9013 32.1877 56.6189C31.9948 54.7529 31.6485 52.9067 31.3071 51.0655C28.0913 51.875 25.0437 53.2226 21.9961 54.6344C23.891 53.3016 25.766 51.954 27.7846 50.8137C29.971 49.5455 32.3056 48.5508 34.7357 47.8519L35.1611 47.7729C37.808 47.3286 40.4796 47.0028 43.1462 46.7363C45.2835 46.5289 47.4554 46.4253 49.5778 46.1439C49.7312 47.2348 49.8747 48.3258 49.9736 49.4216C50.0627 48.5331 50.1121 47.6495 50.122 46.756C50.1666 40.2548 49.2513 33.7043 48.4003 27.2673C47.6335 21.4424 46.6984 15.5237 44.7145 9.99002C44.8085 10.7157 44.9372 11.4364 45.0262 12.162V12.2805C44.3138 11.9547 43.5816 11.6585 42.8444 11.3969C39.9024 10.303 36.831 9.5929 33.7066 9.28412C32.2282 9.09828 30.7323 9.09828 29.2539 9.28412C29.056 8.29685 28.8384 7.3392 28.6009 6.50002C27.5026 2.6151 24.9398 3.5382 22.0654 4.14044C23.6319 3.1745 25.3517 2.48174 27.1513 2.09185C27.8341 1.98271 28.5232 1.91676 29.2144 1.8944C30.2968 2.13161 31.2887 2.6726 32.0732 3.45361C32.8577 4.23461 33.4021 5.22309 33.6423 6.30256C33.6117 4.67497 32.9771 3.11657 31.8612 1.92895C32.5736 1.96844 33.291 2.0178 34.0232 2.09678C34.2706 2.09678 34.518 2.16096 34.7752 2.19058C36.7888 2.89154 37.9861 4.88089 38.5798 6.9591C38.5113 5.44911 38.0547 3.98207 37.2539 2.69902C37.2192 2.63485 37.1747 2.58548 37.1351 2.52625C38.2104 2.70396 39.2971 2.91457 40.3955 3.1581C42.0776 4.00222 43.2056 5.7645 43.7152 7.60082C43.6559 6.21689 43.2512 4.86964 42.5377 3.68135C43.5272 3.94298 44.581 4.22929 45.6001 4.55509C47.0843 5.54236 48.0095 7.42805 48.5389 9.03237C48.4191 7.69813 48.057 6.39677 47.4702 5.19188C48.1035 5.42883 48.7368 5.68552 49.3651 5.95702L49.5531 6.04094C51.156 7.19111 52.2395 9.09161 52.8382 10.9427C52.7022 9.66521 52.3544 8.4191 51.8091 7.25528C52.1462 7.47078 52.4625 7.71701 52.7541 7.9908C53.694 9.01398 54.464 10.1805 55.0348 11.4462C55.4638 12.3773 55.8405 13.3315 56.1628 14.3044C54.1443 14.0033 52.1257 13.7515 50.0924 13.5146C49.7625 12.4944 49.3898 11.4841 48.9742 10.4837C49.1078 11.1994 49.2513 11.9201 49.3849 12.6359C50.5673 19.0532 51.2303 25.5593 52.1059 32.0358C52.5512 35.3432 53.0608 38.6406 53.5902 41.9381C54.0156 44.5939 54.4807 47.2497 54.7231 49.9301C54.8023 49.1403 54.8567 48.3505 54.8666 47.5508C54.8666 47.3484 54.8666 47.1411 54.8666 46.9337C56.2123 47.1707 57.558 47.4274 58.8839 47.7334C60.1059 48.0296 61.2982 48.4146 62.4905 48.8145C62.7676 52.0034 62.8962 55.2317 62.3322 58.2874C62.0744 59.7915 61.5194 61.2296 60.6996 62.5178C60.265 63.1767 59.7856 63.8051 59.2648 64.3986C58.7437 64.9867 58.1852 65.5407 57.5926 66.0572C56.1414 67.3091 54.5312 68.3647 52.8035 69.1967C53.2983 68.8117 53.793 68.4168 54.2878 67.9972C56.2878 66.2784 57.8668 64.1254 58.9037 61.7033C59.9948 59.0023 60.2616 56.0399 59.6705 53.1881C59.8107 55.8325 59.2636 58.4681 58.0824 60.8395C56.9452 62.9525 55.3496 64.7857 53.4121 66.2053C51.9949 67.2459 50.4747 68.1391 48.8753 68.8709C49.4492 68.4118 50.0132 67.9231 50.5574 67.39C52.4586 65.5878 53.8954 63.3541 54.7456 60.8789C55.5958 58.4037 55.8342 55.7602 55.4405 53.1733C55.4869 54.3035 55.3989 55.4353 55.1783 56.5448C54.0156 61.8563 50.2606 66.225 45.3923 68.5846C44.8976 68.8215 44.4029 69.0387 43.9081 69.251C44.4424 68.8166 44.957 68.3625 45.4566 67.8787C49.3651 64.1271 51.4826 58.2034 50.6168 52.8574C50.6488 54.0176 50.5425 55.1776 50.3001 56.3128C49.7425 58.9833 48.5761 61.4899 46.8914 63.6384C46.1593 64.5961 45.3304 65.4762 44.4177 66.2645C43.505 66.9906 42.5519 67.6646 41.5631 68.2835C40.7367 68.7875 39.8695 69.2218 38.9706 69.5817C39.3318 69.2757 39.688 68.9598 40.0244 68.629C42.3046 66.3591 44.0018 63.5734 44.9718 60.5087C45.7931 57.9714 46.2581 55.1775 45.8178 52.5217C45.8745 55.1538 45.3119 57.7625 44.1753 60.1385C42.9657 62.9145 41.0981 65.3557 38.7331 67.2518C37.4991 68.2122 36.1327 68.9903 34.6763 69.562C35.0127 69.2559 35.3442 68.9351 35.6658 68.5747C37.8221 66.2006 39.4016 63.3629 40.2817 60.2816C41.0436 57.7098 41.5284 54.8517 40.9892 52.1811C40.9826 54.242 40.5935 56.2839 39.8414 58.2034C39.0124 60.5835 37.8028 62.8139 36.2594 64.8083C34.7526 66.7917 32.7915 68.3862 30.5403 69.4583C29.437 69.9775 28.2809 70.3763 27.0919 70.648L27.1018 70.6283ZM27.9379 86.9972C29.0695 86.7145 30.0888 86.0967 30.8618 85.2251C31.624 84.3441 32.0606 83.229 32.0987 82.0658C32.1524 80.8192 31.7595 79.5942 30.9905 78.6103C30.204 77.6795 29.1509 77.0111 27.9726 76.695C31.1587 76.0237 33.6126 78.9016 33.6967 81.8733C33.6824 82.6269 33.519 83.3703 33.2159 84.0607C32.9128 84.7511 32.476 85.375 31.9305 85.8964C31.402 86.3893 30.7626 86.7484 30.0661 86.9434C29.3696 87.1384 28.6364 87.1636 27.928 87.017L27.9379 86.9972ZM27.1711 105.262C25.3752 102.507 26.6763 99.1653 28.398 96.7317C27.2849 99.0419 25.9936 101.989 27.3442 104.482C28.5217 106.925 30.9855 108.559 33.197 109.986C30.8173 108.984 28.5712 107.439 27.1513 105.262H27.1711ZM28.4722 104.536C26.9287 102.31 27.9528 100.039 29.7487 96.5244C30.5816 95.0079 31.269 93.4162 31.8018 91.7707C31.9354 91.8151 32.0789 91.8497 32.2224 91.8842L32.3856 91.9286C32.5934 91.978 32.8111 92.0175 33.0337 92.057L33.2316 92.0915C33.5235 92.136 33.8204 92.1755 34.137 92.2001H34.2508V109.206C31.9008 107.804 29.6992 106.313 28.4624 104.536H28.4722ZM59.062 162.291C52.474 163.657 45.7521 164.273 39.025 164.128C34.2165 164.083 29.4191 163.659 24.6776 162.859C20.9709 162.196 17.3182 161.263 13.7488 160.065C25.8699 162.622 38.2434 163.106 50.5723 162.069C55.1282 161.723 59.6475 161 64.0836 159.907C68.1009 158.89 71.9697 157.617 75.5417 155.489C70.7527 159.167 64.89 161.043 59.0521 162.287L59.062 162.291Z" fill="#B7AB98"/>
</svg>
